<?xml version="1.0" encoding="UTF-8"?>
<!DOCTYPE svg PUBLIC "-//W3C//DTD SVG 1.1//EN" "http://www.w3.org/Graphics/SVG/1.1/DTD/svg11.dtd">
<!-- Creator: CorelDRAW -->
<svg xmlns="http://www.w3.org/2000/svg" xml:space="preserve" width="85.3393mm" height="111.874mm" version="1.1" style="shape-rendering:geometricPrecision; text-rendering:geometricPrecision; image-rendering:optimizeQuality; fill-rule:evenodd; clip-rule:evenodd"
viewBox="0 0 1313 1721.25"
 xmlns:xlink="http://www.w3.org/1999/xlink"
 xmlns:xodm="http://www.corel.com/coreldraw/odm/2003">
 <defs>
  <style type="text/css">
   <![CDATA[
    .fil0 {fill:#39A0A1}
    .fil1 {fill:#90CACA}
   ]]>
  </style>
 </defs>
 <g id="Capa_x0020_1">
  <metadata id="CorelCorpID_0Corel-Layer"/>
  <path class="fil0" d="M574.37 719.46c77.27,0 154.54,0 231.81,0 31.42,0 50.92,-1.77 78.34,14.4 10.72,6.32 17.36,13.7 24.45,21.31 14.19,15.23 24.79,41.6 22.82,70.03 -1.65,23.83 -12.55,47.24 -29.17,62.95 -7.14,6.74 -18.31,15.02 -27.35,19.09 -27.78,12.5 -53.2,9.31 -83.43,9.31 -76.94,0 -153.88,0 -230.81,0 -29.99,0 -63.01,1.22 -92.44,-0.1 -19.46,-0.87 -37.63,-6.52 -52.66,-17.18 -4.29,-3.04 -15.13,-12.32 -18.19,-15.95 -29.31,-34.84 -24.87,-58.91 -24.87,-102.53l0 -415.88c0,-21.03 -0.91,-75.02 0.34,-92.21 3.55,-48.78 46.26,-88.24 95.62,-89.64 30.24,-0.86 61.81,-0.02 92.19,-0.02 61.69,0 123.37,0 185.06,0 22.15,0 74.47,-0.99 92.9,0.16 37.73,2.35 68.95,25.95 83.33,55.34 5.42,11.08 8.76,22.91 9.55,36.88 2.15,38 -16.58,71.36 -48.06,90.64 -9.3,5.69 -21.63,10.45 -34.04,12.46 -14.1,2.29 -30.34,1.46 -44.95,1.46 -76.82,0 -153.63,0 -230.45,0l0 71.29c20.1,0 166.23,-1.13 182.71,0.95 13.46,1.7 23.89,5.76 34.42,11.33 12.77,6.75 22.7,16.36 30.78,26.64 5.41,6.88 9.16,12.86 12.77,21.38 5,11.79 7.59,24.29 7.57,38.41 -0.05,29.12 -12.43,50.98 -25.74,66.02l-12.15 11.06c-12.17,10.52 -30.95,18.14 -48.04,20.28 -15.42,1.93 -163.07,0.84 -182.32,0.84l0 71.29zm490.4 -625.38c38.55,-5.12 68.63,23.33 72.73,56.41 4.65,37.54 -22.95,67.9 -55.73,72.13 -38.53,4.98 -68.96,-23.01 -72.97,-56.25 -4.61,-38.15 22.79,-67.88 55.97,-72.29zm-404.72 1019.23c137.55,0 249.26,-44.23 346.81,-118.89 12.19,-9.33 17.5,-14.63 27.72,-23.46l59.17 -61.72c1.82,-2.38 3.35,-4.02 5.2,-6.4 74.74,-96.04 116.77,-201.45 120.76,-338.88 1.73,-59.63 3.43,-118.96 5.22,-178.56 0.89,-29.6 1.67,-59.09 2.58,-88.77 0.94,-30.87 2.53,-61.36 2.53,-92.19 0,-39.55 -13.68,-77.32 -34.39,-108.12 -33.83,-50.32 -90.67,-82.15 -152.47,-85.46 -30.72,-1.65 -61.84,-1.91 -92.67,-2.78l-185.92 -5.43c-114.32,-3.03 -169.65,-10.57 -286.54,28.7 -17.37,5.84 -33.37,13.09 -49.41,20.22 -15.41,6.85 -31.43,15.27 -45.35,23.63 -7.19,4.32 -14.36,8.28 -21.17,12.98 -15.6,10.77 -24.32,15.84 -40.38,28.59l-14.34 11.6c-1.81,1.57 -2.77,2.07 -4.86,4.02 -5.55,5.18 -12.02,9.91 -18.34,16.48l-17.9 16.93c-8.39,8.37 -16.87,18.78 -24.47,26.72 -9.09,9.49 -30.53,38.53 -37.81,48.92 -16.44,23.44 -38.29,61.68 -49.79,88.81 -30.47,71.92 -49.5,148.54 -47.83,229.29 1.81,87.36 15.86,148.74 49.47,226.94 25.82,60.09 69.81,120.02 113.52,163.71l35.94 33.02c5.81,5.16 12.46,10.09 18.95,15.2 60.18,47.35 136.67,82.63 211.77,100.32 38.74,9.13 82.73,14.58 124,14.58z"/>
  <path class="fil0" d="M768.44 1419.74l2.14 2.39c5.34,7.37 20.68,33.08 26.43,41.86 6.08,9.28 23.06,38.33 29.5,43.55 17.06,13.83 40.51,6.5 48.13,-10.23 4.8,-10.55 2.7,-55.67 2.7,-70.51 0,-13.84 0.75,-99.03 -0.23,-108.53 -3.43,-33.04 -52.85,-35.53 -60.33,-3.78 -1.8,7.65 -0.6,59.77 -0.85,72.34 -2.38,-2.07 -13.11,-19.71 -14.58,-22.1 -4.55,-7.36 -9.51,-14.74 -14.03,-22.17 -4.69,-7.71 -24.44,-40.14 -29.34,-43.71 -18.27,-13.32 -39.71,-6.95 -48.14,10.45 -4.06,8.38 -2.62,23.53 -2.62,33.51l0 109.26c0,23.41 -5.08,47.15 14.5,58.53 19.97,11.6 41.81,-0.92 45.88,-18.55 1.83,-7.93 0.59,-59.47 0.85,-72.3z"/>
  <path class="fil0" d="M577.87 1455.01c0,-5.01 -0.71,-17.72 0.45,-21.76 9.59,0 49.1,0.49 55.09,-0.24 34.38,-4.15 34.42,-54.76 0.56,-59.33 -6.1,-0.82 -46.28,-0.3 -55.87,-0.3l-0.25 -21.76c9.82,0 77.37,0.62 83.81,-0.38 8.66,-1.34 13.82,-5.9 17.76,-10.26 4.55,-5.02 7.7,-11.76 7.31,-20.76 -0.33,-7.64 -3.48,-14.41 -8.7,-19.34 -5.46,-5.17 -9.83,-8.29 -18.71,-9 -10.89,-0.87 -70.73,-0.09 -84.65,-0.09 -22.63,0 -43.36,-3.94 -54.43,15.7 -5.77,10.23 -3.57,25.24 -3.57,38.71l0 112.67c0,21.04 -3.41,35.05 9.19,47.46 11.8,11.62 28.24,8.5 47.45,8.5 18.89,0 37.79,0 56.68,0 19.52,0 35.35,3.11 47.48,-8.46 10.11,-9.64 13.14,-28.66 2.31,-40.61 -12.26,-13.51 -23.95,-10.76 -45.01,-10.76 -18.97,0 -37.93,0 -56.9,0z"/>
  <path class="fil0" d="M61.61 1455.01c0,-5.01 -0.71,-17.72 0.45,-21.76 9.59,0 49.1,0.49 55.09,-0.24 34.38,-4.15 34.42,-54.76 0.56,-59.33 -6.1,-0.82 -46.28,-0.3 -55.87,-0.3l-0.25 -21.76c9.82,0 77.37,0.62 83.81,-0.38 14.25,-2.2 25.74,-15.64 25.07,-31.02 -0.17,-3.92 -1.1,-7.76 -2.7,-11 -1.98,-4.03 -3.15,-5.64 -6,-8.34 -13.44,-12.71 -24.83,-9.09 -47.36,-9.09 -18.66,0 -37.33,0 -56,0 -22.63,0 -43.36,-3.94 -54.43,15.7 -5.76,10.23 -3.57,25.24 -3.57,38.71l0 112.67c0,21.04 -3.41,35.05 9.19,47.46 11.8,11.62 28.24,8.5 47.45,8.5 18.89,0 37.79,0 56.68,0 19.52,0 35.35,3.11 47.48,-8.46 10.11,-9.64 13.14,-28.66 2.31,-40.61 -12.26,-13.51 -23.95,-10.76 -45.01,-10.76 -18.97,0 -37.93,0 -56.9,0z"/>
  <path class="fil0" d="M1200.65 1390.72l18.22 36.98 -37 -0.13 18.78 -36.84zm-48.75 97.03l97.24 -0.04c4.07,7.84 7.69,17.58 16.82,22.88 10.06,5.84 23.11,5.68 31.91,0.2 5.09,-3.17 9.89,-7.97 12.51,-14.09 6.91,-16.14 -1.33,-26.34 -8.2,-40.08l-71.02 -142.04c-4.36,-8.73 -4.88,-10.17 -10.88,-15.77 -4.49,-4.19 -11.27,-6.98 -19.4,-7.03 -12.32,-0.09 -19.47,5.05 -26.17,13.23 -1.84,2.25 -3.24,5.89 -4.74,8.9l-71.02 142.04c-6.1,12.19 -15.32,24.33 -8.58,40.38 6.97,16.58 28.03,23.95 43.85,14.71 11.16,-6.52 12.44,-14.62 17.67,-23.29z"/>
  <path class="fil0" d="M980.04 1351.95c-8.59,13.76 -18.32,27.55 -27.6,41.48 -9.35,14.03 -18.59,27.88 -27.86,41.79l-20.76 31.14c-2.63,3.95 -4.93,6.09 -5.79,11.97 -3.16,21.67 10.87,36.57 32.44,36.51l104.48 0c36.33,0.1 43.11,-41.71 17.3,-56.17 -8.89,-4.98 -20.07,-3.67 -30.96,-3.67 -11.75,0 -23.49,0 -35.23,0 1.31,-3.28 25.71,-38.41 28.24,-42.04l42.31 -62.17c6.51,-9.35 10.01,-12.97 10.97,-23.72 1.07,-12.04 -1.99,-20.06 -8.48,-26.19 -8.33,-7.88 -13.03,-9.12 -25.51,-9.09l-104.49 -0.01c-34.16,0.05 -42.32,42.37 -15.01,56.49 14.41,7.45 50.06,0.55 65.97,3.67z"/>
  <path class="fil0" d="M417.8 1292.08c-61.75,5.28 -87.87,84.89 -39.42,124.12 29.16,23.61 44.82,13.09 52.47,19.21 8.81,7.04 2.32,21.78 -8.23,19.24 -4.37,-1.05 -6.56,-5.14 -8.86,-8.97 -7.41,-12.32 -22.83,-17.52 -36.59,-12.88 -17.97,6.07 -26.38,25.91 -14.96,45.31 3.21,5.45 11.25,15.42 16.03,19.47 15.88,13.44 31.58,19.09 54.27,16.97 10.78,-1.01 18.57,-3.9 26.99,-8.32 23.04,-12.11 39.38,-39.31 36.47,-69.8 -2.13,-22.36 -13.84,-36.54 -24.74,-46.18 -10.08,-8.91 -22.23,-14.62 -36.87,-16.38 -5.55,-0.67 -11.76,0.12 -15.59,-2.83 -8.09,-6.23 -3.38,-21.43 8.15,-19.11 8.15,1.64 6.18,9.67 17.59,17.93 7.18,5.2 17.89,7.28 28.1,3.97 17.11,-5.54 27,-26.42 14.76,-45.46 -9.3,-14.47 -21.41,-27.03 -38.17,-32.82 -9.93,-3.43 -20.56,-4.4 -31.38,-3.48z"/>
  <path class="fil0" d="M254.59 1292.08c-15.39,1.32 -27.02,6.59 -38.1,15.52l-9.1 8.65c-10.95,13.9 -19.18,29.13 -16.84,53.73 3.14,33.01 30.11,58.8 61.26,62.71 5.36,0.67 11.9,-0.42 15.83,2.72 8.81,7.04 2.32,21.78 -8.23,19.24 -7.65,-1.85 -6.83,-10.73 -17.43,-18.15 -24.33,-17.03 -62.49,8.47 -42.98,41.61 20.16,34.25 60.43,47.49 97.28,28.12 23.03,-12.11 39.38,-39.31 36.47,-69.8 -2.13,-22.36 -13.84,-36.54 -24.74,-46.18 -24.28,-21.46 -45.65,-13.96 -52.47,-19.21 -8.09,-6.23 -3.38,-21.43 8.15,-19.11 8.15,1.64 6.18,9.67 17.59,17.93 15.21,11.02 38.95,5.31 46.36,-13.24 4.13,-10.33 1.64,-20.27 -3.5,-28.25 -6.68,-10.39 -15.46,-20.67 -26.13,-27.14 -12.99,-7.88 -27.96,-10.48 -43.42,-9.16z"/>
  <path class="fil0" d="M779.01 1638.26c15.43,-2.53 27.58,8.32 30.27,21.01 3.5,16.56 -7.54,28.87 -20.24,31.78 -35.44,8.12 -41.61,-47.61 -10.03,-52.79zm28.4 -18.77c-2.27,-1.29 -3.22,-2.88 -5.26,-4.3 -28.28,-19.64 -74.77,3.53 -74.46,50.61 0.27,42.08 41.17,65.71 69.45,51.05 4.85,-2.51 7.12,-5.37 11.1,-7.66 6.5,10.86 -0.96,10.07 22.55,10.03 12.02,-0.02 9.5,-5.24 9.5,-22.69l0 -96.29c0,-12.36 3.55,-22.24 -10.19,-22.2 -17.74,0.06 -22.76,-2.66 -22.7,9.89 0.05,10.52 0.02,21.04 0.02,31.55z"/>
  <path class="fil0" d="M964.7 1638.22c33.35,-5.56 37.32,49.34 7.82,53.21 -34.82,4.57 -37.84,-48.21 -7.82,-53.21zm-51.75 31.68c2.23,29.74 28.29,53.49 61.14,51.04 29.63,-2.21 53.16,-28.76 50.62,-61.31 -2.32,-29.76 -28.27,-53.86 -61.41,-50.97 -29.67,2.58 -52.79,28.54 -50.34,61.24z"/>
  <path class="fil0" d="M343.82 1650.27c2.15,-6.94 11.73,-15.99 21.92,-15.58 10.67,0.43 18.2,8.05 21.01,15.61l-42.93 -0.03zm-1.18 24.37c12.17,-1.26 66,1.84 71.87,-1.68 6.27,-3.75 2.3,-24.08 -0.22,-30.48 -3.79,-9.67 -9.58,-15.99 -15.47,-21.37 -12.02,-10.98 -37.29,-17.08 -56.17,-7.72 -17.11,8.49 -27.95,22.95 -30.97,42.11 -7.72,48.98 48.58,83.7 89.01,54.17 2.36,-1.73 8.53,-5.68 7.66,-10.1 -0.37,-1.88 -2.67,-4.63 -3.75,-5.74 -6.06,-6.18 -9.24,-13.33 -15.34,-8.58 -18.59,14.5 -43.83,9.13 -46.63,-10.6z"/>
  <path class="fil0" d="M681.84 1706.09l0.99 -0.87 0.5 1.33c0.68,5.98 1.7,12.01 6.97,12.84 3.07,0.48 15.47,0.48 17.79,-0.74 4.12,-2.16 2.94,-10.15 2.94,-15.97l0 -76.48c0,-5.54 1.3,-13.68 -3.58,-15.27 -2.56,-0.83 -15.74,-0.39 -19.43,-0.41 -7.51,-0.05 -9.83,1.14 -9.84,8.81 -0.02,12.76 0.02,25.52 0.02,38.28 0,13.59 1.54,24.11 -8.57,30.09 -10.79,6.38 -21,3.16 -26.49,-4.99 -4.62,-6.85 -2.95,-26.4 -2.95,-36.02 0,-42.03 4.74,-36.06 -21.13,-36.15 -8.24,-0.03 -10.92,-0.95 -10.9,8.12 0.02,12.76 0.02,25.52 0.02,38.27 0,21.91 -1.62,43.56 18.64,57.81 18.05,12.69 46.98,4.82 55.01,-8.64z"/>
  <path class="fil0" d="M475.66 1635.21c18.34,0 11.39,16.74 27.58,0.79 6.73,-6.63 12.5,-6.72 3.2,-15.29 -1.43,-1.32 -5.75,-4.63 -7.82,-5.84 -9.85,-5.78 -15.73,-6.38 -27.05,-6.38 -19.54,0 -36.65,12.21 -36.65,31.37 0,34.25 33.74,34.54 45.03,40.77 4.29,2.37 7.37,12.9 -9.06,12.9 -13.59,0 -19.51,-9.83 -22.99,-10.9 -4.38,-1.34 -16.45,13.66 -16.72,14.49 -2.15,6.83 9.2,14.81 13.54,17.37 10.04,5.91 18.73,6.77 30.26,6.77 21.39,0 40.93,-13.47 40.93,-34.28l0 -3.41c0,-21.33 -18.97,-30.49 -35.86,-35.1 -7.11,-1.94 -14.35,-1.64 -13.22,-10.19 1.32,-2.43 5.52,-3.05 8.83,-3.05z"/>
  <path class="fil0" d="M540.9 1610.17c-4.36,1.01 -10.73,-0.92 -13.68,2.03 -2.49,2.48 -1.66,9.31 -1.66,13.32 0,4.56 -1.05,10.93 2.13,13.53 3.24,2.64 8.8,0.8 13.21,1.81 0,15.83 0,31.66 0,47.48 0,7.64 -0.41,16.45 -0,23.94 0.23,4.2 1.18,6.2 5.14,6.67 3.12,0.37 8.24,0.07 11.57,0.07 8.94,0 16.13,2.15 16.37,-7.43 0.52,-21.36 -0.02,-49.22 -0.02,-71.1 17.19,0 17.76,2.64 17.75,-14.98 0,-17.62 -0.47,-14.98 -17.75,-14.98 0,-7.62 0.27,-15.74 0.01,-23.3 -0.36,-10.23 -7.55,-6.6 -13.93,-4.35 -21.26,7.51 -19.13,2.86 -19.13,27.28z"/>
  <path class="fil0" d="M895.25 1714.97c1.08,-2.97 0.34,-61.84 0.34,-70.34 0,-36.69 3.51,-34.09 -19.08,-34.1 -5.44,-0 -11.44,-1.09 -13.25,3.77 -1.36,3.64 -0.55,61.66 -0.55,70.62 0,38.02 -3.61,33.91 19.26,33.92 5.98,0 11.42,1.23 13.27,-3.87z"/>
  <path class="fil0" d="M866.36 1567.97c-4.92,1.61 -3.65,6.81 -3.64,12.47 0.03,18.5 -1.27,17.39 14.48,17.39 14.57,-0 18.44,2.52 18.4,-13.29 -0.05,-17.13 1.32,-17.04 -14.3,-17.03 -3.85,0 -11.81,-0.57 -14.94,0.46z"/>
  <polygon class="fil1" points="683.34,1706.55 682.84,1705.22 681.84,1706.09 "/>
 </g>
</svg>
