<?xml version="1.0" encoding="UTF-8"?>
<!DOCTYPE svg PUBLIC "-//W3C//DTD SVG 1.1//EN" "http://www.w3.org/Graphics/SVG/1.1/DTD/svg11.dtd">
<!-- Creator: CorelDRAW -->
<svg xmlns="http://www.w3.org/2000/svg" xml:space="preserve" width="75.3881mm" height="74.7197mm" version="1.1" style="shape-rendering:geometricPrecision; text-rendering:geometricPrecision; image-rendering:optimizeQuality; fill-rule:evenodd; clip-rule:evenodd"
viewBox="0 0 13647.37 13526.37"
 xmlns:xlink="http://www.w3.org/1999/xlink"
 xmlns:xodm="http://www.corel.com/coreldraw/odm/2003">
 <defs>
  <style type="text/css">
   <![CDATA[
    .fil0 {fill:#39A0A1}
   ]]>
  </style>
 </defs>
 <g id="Capa_x0020_1">
  <metadata id="CorelCorpID_0Corel-Layer"/>
  <path class="fil0" d="M6295.6 9.23c-1309.43,70.4 -2716.02,632.71 -3682.33,1404.56 -169.84,135.66 -316.06,261.31 -467.13,390.6 -223.75,191.51 -605.07,642.74 -795.11,895.73 -129.07,171.83 -230.45,318.57 -350.05,507.06 -748.17,1179.04 -1085.97,2644.19 -982.82,4089.34 253.75,3555.57 3440.11,6553.96 7345.2,6201.65 1349.69,-121.78 2625.32,-649.62 3621.92,-1450.14 92.81,-74.57 148.5,-135.35 231.06,-197.14 98.86,-73.97 133.11,-128.46 220.66,-207.97 82.19,-74.66 139.79,-132.6 214.39,-214.92 392.36,-432.97 596.96,-652.7 921.49,-1197.74 839.1,-1409.3 923.9,-2482.37 976.09,-4112.69 35.08,-1095.91 61.91,-2191.51 96.04,-3287.04 31.1,-998.73 -241.46,-1772.34 -1078.2,-2320.6 -350.13,-229.4 -783.62,-369.64 -1295.2,-387.45 -1004.11,-34.96 -4169.3,-156.61 -4975.99,-113.25zm5282.33 1140.48c-1029.49,234.83 -663.18,1759.74 337.2,1537.78 1009.34,-223.97 683.06,-1770.51 -337.2,-1537.78zm-5898.15 7588.03l0.42 -851.76c667.69,-76.38 1524.53,58.8 2201.43,-16.49 1012.16,-112.58 1366.47,-1339.84 759.78,-1981.79 -193.28,-204.51 -433.42,-349.91 -730.58,-389.93 -418.94,-56.41 -1651.85,15.98 -2222.41,-16.35l-8.67 -857.84c567.98,-61.26 2865.04,50.67 3338.16,-22.45 944.39,-145.94 1357.98,-1302.82 665.62,-2018.12 -460.26,-475.51 -1143.86,-360.9 -1914.17,-360.9 -746.4,0 -1492.79,0 -2239.19,0 -785.73,0 -1452.05,-128.4 -1930.03,344.73 -99.96,98.93 -163.23,159.87 -240.98,307.31 -205.32,389.36 -129.51,1062.29 -129.51,1551.5l0 4502.21c0,349.42 -20.29,764.36 3.31,1105.88 23.04,333.62 206.1,632.93 366.44,777.12 498.5,448.28 1126.32,328.69 1906.95,328.69 754.34,0 1508.69,0 2263.02,0 901.61,0 1710.88,139.54 2130.99,-652.64 231.88,-437.26 138.63,-939.37 -148.35,-1302.06 -408.67,-516.47 -1011.88,-438.65 -1815.88,-438.65 -363.85,0 -2047.5,21.18 -2256.34,-8.47z"/>
 </g>
</svg>
