<?xml version="1.0" encoding="UTF-8"?>
<!DOCTYPE svg PUBLIC "-//W3C//DTD SVG 1.1//EN" "http://www.w3.org/Graphics/SVG/1.1/DTD/svg11.dtd">
<!-- Creator: CorelDRAW -->
<svg xmlns="http://www.w3.org/2000/svg" xml:space="preserve" width="85.3393mm" height="111.874mm" version="1.1" style="shape-rendering:geometricPrecision; text-rendering:geometricPrecision; image-rendering:optimizeQuality; fill-rule:evenodd; clip-rule:evenodd"
viewBox="0 0 914.49 1198.84"
 xmlns:xlink="http://www.w3.org/1999/xlink"
 xmlns:xodm="http://www.corel.com/coreldraw/odm/2003">
 <defs>
  <style type="text/css">
   <![CDATA[
    .fil1 {fill:#45A6A7}
    .fil2 {fill:#90CACA}
    .fil0 {fill:white}
   ]]>
  </style>
 </defs>
 <g id="Capa_x0020_1">
  <metadata id="CorelCorpID_0Corel-Layer"/>
  <path class="fil0" d="M400.04 501.1c53.82,0 107.64,0 161.46,0 21.89,0 35.46,-1.23 54.56,10.03 7.47,4.4 12.09,9.54 17.03,14.84 9.89,10.61 17.27,28.97 15.89,48.78 -1.15,16.6 -8.74,32.9 -20.32,43.84 -4.97,4.7 -12.75,10.46 -19.05,13.3 -19.35,8.71 -37.05,6.48 -58.11,6.48 -53.59,0 -107.17,0 -160.76,0 -20.89,0 -43.89,0.85 -64.38,-0.07 -13.55,-0.61 -26.21,-4.54 -36.68,-11.97 -2.99,-2.12 -10.54,-8.58 -12.67,-11.11 -20.41,-24.26 -17.32,-41.03 -17.32,-71.41l0 -289.66c0,-14.65 -0.63,-52.25 0.24,-64.23 2.47,-33.98 32.22,-61.46 66.6,-62.44 21.06,-0.6 43.05,-0.01 64.21,-0.01 42.96,0 85.93,0 128.89,0 15.43,0 51.87,-0.69 64.71,0.11 26.28,1.63 48.02,18.07 58.04,38.55 3.78,7.72 6.1,15.95 6.65,25.69 1.5,26.47 -11.55,49.7 -33.48,63.13 -6.48,3.97 -15.07,7.28 -23.71,8.68 -9.82,1.59 -21.13,1.02 -31.31,1.02 -53.5,0 -107,0 -160.51,0l0 49.65c14,0 115.78,-0.78 127.26,0.66 9.37,1.18 16.64,4.01 23.97,7.89 8.89,4.7 15.81,11.4 21.44,18.55 3.77,4.79 6.38,8.96 8.89,14.89 3.48,8.21 5.29,16.92 5.27,26.75 -0.04,20.28 -8.66,35.5 -17.93,45.98l-8.46 7.71c-8.48,7.33 -21.55,12.63 -33.46,14.12 -10.74,1.35 -113.58,0.58 -126.99,0.58l0 49.65zm341.56 -435.57c26.85,-3.57 47.8,16.25 50.66,39.29 3.24,26.14 -15.98,47.29 -38.81,50.24 -26.84,3.47 -48.03,-16.02 -50.83,-39.18 -3.21,-26.57 15.87,-47.28 38.98,-50.35zm-281.89 709.88c95.81,0 173.61,-30.81 241.55,-82.8 8.49,-6.5 12.19,-10.19 19.31,-16.34l41.21 -42.99c1.27,-1.66 2.33,-2.8 3.62,-4.46 52.05,-66.89 81.33,-140.31 84.11,-236.03 1.2,-41.53 2.39,-82.86 3.63,-124.37 0.62,-20.62 1.16,-41.16 1.79,-61.83 0.66,-21.5 1.76,-42.74 1.76,-64.21 0,-27.55 -9.53,-53.85 -23.95,-75.31 -23.56,-35.05 -63.15,-57.21 -106.19,-59.52 -21.39,-1.15 -43.07,-1.33 -64.54,-1.94l-129.49 -3.78c-79.62,-2.11 -118.16,-7.36 -199.57,19.99 -12.1,4.07 -23.24,9.12 -34.41,14.08 -10.73,4.77 -21.89,10.64 -31.59,16.46 -5.01,3.01 -10,5.76 -14.74,9.04 -10.86,7.5 -16.94,11.04 -28.13,19.91l-9.99 8.08c-1.26,1.09 -1.93,1.44 -3.38,2.8 -3.87,3.61 -8.37,6.9 -12.77,11.48l-12.47 11.79c-5.84,5.83 -11.75,13.08 -17.05,18.61 -6.33,6.61 -21.26,26.84 -26.34,34.07 -11.45,16.33 -26.67,42.96 -34.68,61.86 -21.22,50.09 -34.48,103.46 -33.31,159.7 1.26,60.85 11.05,103.59 34.46,158.06 17.98,41.85 48.62,83.59 79.07,114.02l25.03 23c4.05,3.59 8.68,7.03 13.2,10.58 41.91,32.98 95.19,57.55 147.49,69.87 26.98,6.36 57.62,10.16 86.36,10.16z"/>
  <path class="fil0" d="M535.22 988.84l1.49 1.66c3.72,5.14 14.4,23.04 18.41,29.15 4.23,6.46 16.06,26.69 20.54,30.33 11.89,9.63 28.22,4.53 33.52,-7.13 3.34,-7.35 1.88,-38.77 1.88,-49.11 0,-9.64 0.53,-68.97 -0.16,-75.59 -2.39,-23.01 -36.81,-24.75 -42.02,-2.64 -1.25,5.33 -0.42,41.63 -0.59,50.39 -1.65,-1.44 -9.13,-13.73 -10.16,-15.39 -3.17,-5.13 -6.63,-10.26 -9.77,-15.44 -3.26,-5.37 -17.02,-27.96 -20.43,-30.45 -12.72,-9.28 -27.66,-4.84 -33.53,7.28 -2.83,5.84 -1.83,16.39 -1.83,23.34l0 76.1c0,16.31 -3.54,32.84 10.1,40.77 13.91,8.08 29.12,-0.64 31.96,-12.92 1.27,-5.52 0.41,-41.42 0.59,-50.35z"/>
  <path class="fil0" d="M402.49 1013.41c0,-3.49 -0.5,-12.34 0.32,-15.15 6.68,0 34.2,0.34 38.37,-0.16 23.95,-2.89 23.97,-38.14 0.39,-41.32 -4.25,-0.57 -32.23,-0.21 -38.92,-0.21l-0.17 -15.15c6.84,0 53.89,0.43 58.37,-0.26 6.03,-0.93 9.63,-4.11 12.37,-7.14 3.17,-3.5 5.36,-8.19 5.09,-14.46 -0.23,-5.32 -2.42,-10.03 -6.06,-13.47 -3.81,-3.6 -6.84,-5.77 -13.03,-6.27 -7.58,-0.6 -49.26,-0.06 -58.96,-0.06 -15.76,0 -30.2,-2.74 -37.91,10.93 -4.02,7.12 -2.48,17.58 -2.48,26.96l0 78.48c0,14.66 -2.38,24.41 6.4,33.05 8.22,8.09 19.67,5.92 33.05,5.92 13.16,0 26.32,0 39.48,0 13.59,0 24.62,2.16 33.07,-5.89 7.04,-6.72 9.15,-19.96 1.61,-28.28 -8.54,-9.41 -16.68,-7.49 -31.35,-7.49 -13.21,0 -26.42,0 -39.63,0z"/>
  <path class="fil0" d="M42.91 1013.41c0,-3.49 -0.5,-12.34 0.32,-15.15 6.68,0 34.2,0.34 38.37,-0.16 23.95,-2.89 23.97,-38.14 0.39,-41.32 -4.25,-0.57 -32.23,-0.21 -38.91,-0.21l-0.17 -15.15c6.84,0 53.89,0.43 58.37,-0.26 9.93,-1.53 17.93,-10.9 17.46,-21.6 -0.12,-2.73 -0.77,-5.4 -1.88,-7.66 -1.38,-2.81 -2.19,-3.93 -4.18,-5.81 -9.36,-8.85 -17.3,-6.33 -32.99,-6.33 -13,0 -26,0 -39,0 -15.76,0 -30.2,-2.74 -37.91,10.93 -4.02,7.12 -2.48,17.58 -2.48,26.96l0 78.48c0,14.66 -2.38,24.41 6.4,33.05 8.22,8.09 19.67,5.92 33.05,5.92 13.16,0 26.32,0 39.48,0 13.59,0 24.62,2.16 33.07,-5.89 7.04,-6.72 9.15,-19.96 1.61,-28.28 -8.54,-9.41 -16.68,-7.49 -31.35,-7.49 -13.21,0 -26.42,0 -39.63,0z"/>
  <path class="fil0" d="M836.24 968.63l12.69 25.75 -25.77 -0.09 13.08 -25.66zm-33.95 67.58l67.73 -0.03c2.84,5.46 5.36,12.24 11.72,15.94 7.01,4.07 16.1,3.96 22.22,0.14 3.54,-2.21 6.89,-5.55 8.72,-9.81 4.81,-11.24 -0.93,-18.35 -5.71,-27.92l-49.46 -98.93c-3.04,-6.08 -3.4,-7.09 -7.58,-10.98 -3.13,-2.92 -7.85,-4.86 -13.51,-4.9 -8.58,-0.06 -13.56,3.51 -18.23,9.22 -1.28,1.57 -2.26,4.1 -3.3,6.2l-49.46 98.93c-4.25,8.49 -10.67,16.94 -5.97,28.13 4.85,11.55 19.52,16.68 30.54,10.24 7.78,-4.54 8.66,-10.18 12.31,-16.22z"/>
  <path class="fil0" d="M682.59 941.62c-5.98,9.59 -12.76,19.19 -19.23,28.89 -6.51,9.77 -12.94,19.42 -19.41,29.11l-14.46 21.69c-1.83,2.75 -3.44,4.24 -4.03,8.34 -2.2,15.09 7.57,25.47 22.59,25.43l72.77 0c25.3,0.07 30.03,-29.05 12.05,-39.12 -6.19,-3.47 -13.98,-2.55 -21.56,-2.55 -8.18,0 -16.36,0 -24.54,0 0.91,-2.28 17.91,-26.76 19.67,-29.28l29.47 -43.3c4.53,-6.51 6.98,-9.03 7.64,-16.52 0.74,-8.39 -1.39,-13.97 -5.9,-18.24 -5.8,-5.49 -9.08,-6.35 -17.77,-6.33l-72.78 -0.01c-23.79,0.03 -29.48,29.51 -10.46,39.34 10.04,5.19 34.87,0.38 45.95,2.56z"/>
  <path class="fil0" d="M290.99 899.93c-43.01,3.68 -61.2,59.13 -27.46,86.45 20.31,16.44 31.22,9.12 36.55,13.38 6.13,4.9 1.62,15.17 -5.73,13.4 -3.05,-0.73 -4.57,-3.58 -6.17,-6.25 -5.16,-8.58 -15.9,-12.2 -25.48,-8.97 -12.51,4.23 -18.37,18.05 -10.42,31.56 2.23,3.8 7.83,10.74 11.16,13.56 11.06,9.36 21.99,13.3 37.8,11.82 7.51,-0.7 12.93,-2.71 18.8,-5.8 16.04,-8.44 27.43,-27.38 25.4,-48.62 -1.49,-15.57 -9.64,-25.45 -17.23,-32.16 -7.02,-6.21 -15.48,-10.18 -25.68,-11.41 -3.87,-0.47 -8.19,0.08 -10.86,-1.97 -5.63,-4.34 -2.36,-14.92 5.67,-13.31 5.67,1.14 4.31,6.73 12.25,12.49 5,3.63 12.46,5.07 19.57,2.77 11.92,-3.86 18.81,-18.4 10.28,-31.67 -6.48,-10.08 -14.91,-18.83 -26.59,-22.86 -6.92,-2.39 -14.32,-3.07 -21.86,-2.42z"/>
  <path class="fil0" d="M177.32 899.93c-10.72,0.92 -18.82,4.59 -26.54,10.81l-6.34 6.02c-7.63,9.68 -13.36,20.29 -11.73,37.42 2.19,22.99 20.97,40.95 42.67,43.68 3.73,0.47 8.29,-0.29 11.03,1.9 6.13,4.9 1.62,15.17 -5.73,13.4 -5.33,-1.29 -4.76,-7.47 -12.14,-12.64 -16.95,-11.86 -43.52,5.9 -29.94,28.98 14.04,23.85 42.09,33.08 67.76,19.59 16.04,-8.44 27.43,-27.38 25.4,-48.62 -1.49,-15.57 -9.64,-25.45 -17.23,-32.16 -16.91,-14.95 -31.79,-9.72 -36.54,-13.38 -5.64,-4.34 -2.36,-14.92 5.67,-13.31 5.67,1.14 4.31,6.73 12.25,12.49 10.6,7.68 27.13,3.7 32.29,-9.22 2.87,-7.19 1.14,-14.12 -2.43,-19.68 -4.65,-7.24 -10.77,-14.39 -18.2,-18.9 -9.05,-5.49 -19.47,-7.3 -30.24,-6.38z"/>
  <path class="fil0" d="M542.57 1141.04c10.75,-1.76 19.21,5.79 21.08,14.64 2.44,11.53 -5.25,20.11 -14.1,22.13 -24.68,5.65 -28.98,-33.16 -6.98,-36.77zm19.78 -13.07c-1.58,-0.9 -2.24,-2 -3.67,-2.99 -19.69,-13.68 -52.08,2.46 -51.86,35.25 0.19,29.31 28.67,45.76 48.37,35.56 3.38,-1.75 4.96,-3.74 7.73,-5.34 4.53,7.56 -0.67,7.01 15.71,6.99 8.37,-0.01 6.62,-3.65 6.62,-15.81l0 -67.06c0,-8.61 2.47,-15.49 -7.1,-15.46 -12.36,0.04 -15.85,-1.85 -15.81,6.89 0.03,7.33 0.01,14.65 0.01,21.98z"/>
  <path class="fil0" d="M671.91 1141.01c23.23,-3.87 25.99,34.36 5.44,37.06 -24.25,3.18 -26.36,-33.58 -5.44,-37.06zm-36.04 22.07c1.55,20.71 19.7,37.26 42.58,35.55 20.64,-1.54 37.02,-20.03 35.25,-42.7 -1.62,-20.72 -19.69,-37.51 -42.77,-35.5 -20.66,1.8 -36.77,19.88 -35.06,42.66z"/>
  <path class="fil0" d="M239.47 1149.4c1.5,-4.83 8.17,-11.14 15.26,-10.85 7.43,0.3 12.68,5.61 14.63,10.87l-29.9 -0.02zm-0.82 16.97c8.48,-0.88 45.97,1.28 50.06,-1.17 4.36,-2.61 1.6,-16.77 -0.15,-21.23 -2.64,-6.73 -6.67,-11.14 -10.77,-14.89 -8.37,-7.65 -25.97,-11.9 -39.12,-5.38 -11.92,5.91 -19.47,15.98 -21.57,29.33 -5.37,34.11 33.84,58.3 62,37.73 1.65,-1.2 5.94,-3.95 5.34,-7.03 -0.26,-1.31 -1.86,-3.23 -2.61,-4 -4.22,-4.31 -6.44,-9.29 -10.69,-5.97 -12.95,10.1 -30.52,6.36 -32.48,-7.38z"/>
  <path class="fil0" d="M474.9 1188.28l0.69 -0.61 0.35 0.92c0.48,4.17 1.18,8.37 4.85,8.94 2.14,0.34 10.77,0.34 12.39,-0.51 2.87,-1.51 2.05,-7.07 2.05,-11.13l0 -53.27c0,-3.86 0.9,-9.53 -2.49,-10.63 -1.79,-0.58 -10.96,-0.27 -13.53,-0.29 -5.23,-0.04 -6.85,0.79 -6.86,6.14 -0.01,8.89 0.01,17.77 0.01,26.66 0,9.46 1.07,16.79 -5.97,20.96 -7.51,4.45 -14.63,2.2 -18.45,-3.48 -3.21,-4.77 -2.05,-18.39 -2.05,-25.09 0,-29.27 3.3,-25.11 -14.71,-25.18 -5.74,-0.02 -7.61,-0.66 -7.59,5.65 0.02,8.89 0.02,17.77 0.02,26.66 0,15.26 -1.13,30.34 12.98,40.26 12.57,8.84 32.72,3.36 38.32,-6.02z"/>
  <path class="fil0" d="M331.3 1138.91c12.78,0 7.93,11.66 19.21,0.55 4.69,-4.62 8.7,-4.68 2.23,-10.65 -1,-0.92 -4.01,-3.23 -5.44,-4.07 -6.86,-4.03 -10.96,-4.44 -18.84,-4.44 -13.61,0 -25.53,8.5 -25.53,21.85 0,23.85 23.5,24.06 31.36,28.4 2.99,1.65 5.14,8.99 -6.31,8.99 -9.47,0 -13.59,-6.85 -16.01,-7.59 -3.05,-0.93 -11.46,9.51 -11.64,10.09 -1.49,4.75 6.41,10.32 9.43,12.1 6.99,4.12 13.04,4.72 21.08,4.72 14.9,0 28.51,-9.38 28.51,-23.88l0 -2.38c0,-14.85 -13.21,-21.23 -24.97,-24.45 -4.95,-1.35 -10,-1.15 -9.21,-7.1 0.92,-1.7 3.84,-2.13 6.15,-2.13z"/>
  <path class="fil0" d="M376.74 1121.47c-3.04,0.7 -7.47,-0.64 -9.53,1.41 -1.73,1.73 -1.16,6.48 -1.16,9.27 0,3.18 -0.73,7.61 1.49,9.42 2.26,1.84 6.13,0.55 9.2,1.26 0,11.02 0,22.05 0,33.07 0,5.32 -0.29,11.46 -0,16.68 0.16,2.93 0.82,4.32 3.58,4.65 2.17,0.26 5.74,0.05 8.06,0.05 6.23,0 11.24,1.5 11.4,-5.17 0.36,-14.88 -0.02,-34.28 -0.02,-49.52 11.97,0 12.37,1.84 12.37,-10.43 0,-12.27 -0.32,-10.43 -12.37,-10.43 0,-5.31 0.19,-10.96 0,-16.23 -0.25,-7.12 -5.26,-4.6 -9.7,-3.03 -14.81,5.23 -13.32,1.99 -13.32,19z"/>
  <path class="fil0" d="M623.54 1194.46c0.75,-2.07 0.24,-43.07 0.24,-48.99 0,-25.55 2.45,-23.74 -13.29,-23.75 -3.79,-0 -7.97,-0.76 -9.23,2.62 -0.95,2.54 -0.38,42.95 -0.38,49.19 0,26.48 -2.51,23.62 13.41,23.63 4.16,0 7.96,0.86 9.24,-2.7z"/>
  <path class="fil0" d="M603.42 1092.08c-3.42,1.12 -2.54,4.74 -2.54,8.69 0.02,12.88 -0.88,12.12 10.08,12.11 10.15,-0 12.84,1.76 12.81,-9.26 -0.03,-11.93 0.92,-11.87 -9.96,-11.86 -2.68,0 -8.22,-0.4 -10.4,0.32z"/>
  <path class="fil1" d="M239.47 1149.4l29.9 0.02c-1.96,-5.27 -7.21,-10.57 -14.63,-10.87 -7.09,-0.29 -13.77,6.02 -15.26,10.85z"/>
  <polygon class="fil2" points="475.94,1188.6 475.59,1187.67 474.9,1188.28 "/>
 </g>
</svg>
