<?xml version="1.0" encoding="UTF-8"?>
<!DOCTYPE svg PUBLIC "-//W3C//DTD SVG 1.1//EN" "http://www.w3.org/Graphics/SVG/1.1/DTD/svg11.dtd">
<!-- Creator: CorelDRAW -->
<svg xmlns="http://www.w3.org/2000/svg" xml:space="preserve" width="88.0971mm" height="124.353mm" version="1.1" style="shape-rendering:geometricPrecision; text-rendering:geometricPrecision; image-rendering:optimizeQuality; fill-rule:evenodd; clip-rule:evenodd"
viewBox="0 0 1469.04 2073.62"
 xmlns:xlink="http://www.w3.org/1999/xlink"
 xmlns:xodm="http://www.corel.com/coreldraw/odm/2003">
 <defs>
  <style type="text/css">
   <![CDATA[
    .fil1 {fill:none}
    .fil0 {fill:#39A0A1}
   ]]>
  </style>
 </defs>
 <g id="Capa_x0020_1">
  <metadata id="CorelCorpID_0Corel-Layer"/>
  <g id="_41431891424">
   <path class="fil0" d="M697.47 0.85c-120.62,6.49 -250.18,58.28 -339.19,129.38 -15.64,12.5 -29.11,24.07 -43.03,35.98 -20.61,17.64 -55.74,59.21 -73.24,82.51 -11.89,15.83 -21.23,29.35 -32.24,46.71 -68.92,108.61 -100.03,243.57 -90.53,376.69 23.37,327.52 316.88,603.71 676.6,571.26 124.33,-11.22 241.83,-59.84 333.63,-133.58 8.55,-6.87 13.68,-12.47 21.28,-18.16 9.11,-6.81 12.26,-11.83 20.33,-19.16 7.57,-6.88 12.88,-12.21 19.75,-19.8 36.14,-39.88 54.99,-60.12 84.88,-110.33 77.29,-129.82 85.1,-228.66 89.91,-378.84 3.23,-100.95 5.7,-201.87 8.85,-302.78 2.86,-92 -22.24,-163.26 -99.32,-213.76 -32.25,-21.13 -72.18,-34.05 -119.31,-35.69 -92.49,-3.22 -384.05,-14.43 -458.36,-10.43zm486.58 105.05c-94.83,21.63 -61.09,162.1 31.06,141.65 92.97,-20.63 62.92,-163.09 -31.06,-141.65zm-543.3 698.97l0.04 -78.46c61.5,-7.04 140.43,5.42 202.78,-1.52 93.23,-10.37 125.87,-123.42 69.99,-182.55 -17.8,-18.84 -39.92,-32.23 -67.3,-35.92 -38.59,-5.2 -152.16,1.47 -204.72,-1.51l-0.8 -79.02c52.32,-5.64 263.91,4.67 307.49,-2.07 86.99,-13.44 125.09,-120.01 61.31,-185.9 -42.4,-43.8 -105.37,-33.24 -176.32,-33.24 -68.75,0 -137.51,0 -206.26,0 -72.38,0 -133.75,-11.83 -177.78,31.75 -9.21,9.11 -15.04,14.73 -22.2,28.31 -18.91,35.87 -11.93,97.85 -11.93,142.92l0 414.72c0,32.19 -1.87,70.41 0.31,101.87 2.12,30.73 18.98,58.3 33.75,71.58 45.92,41.29 103.75,30.28 175.66,30.28 69.49,0 138.97,0 208.46,0 83.05,0 157.6,12.85 196.29,-60.12 21.36,-40.28 12.77,-86.53 -13.67,-119.94 -37.64,-47.57 -93.21,-40.41 -167.27,-40.41 -33.52,0 -188.6,1.95 -207.84,-0.78z"/>
   <path class="fil0" d="M861.47 1590.3c10.19,8.45 54.07,88.97 65.27,97.47 19.08,14.48 44.57,6.49 53.29,-11.98 5.79,-12.27 3.14,-136.92 3.14,-160.02 0,-29.36 4.43,-51.9 -16.58,-65.37 -20.91,-13.41 -46.5,0.98 -51.11,20.19 -3.79,15.78 -0.51,60.52 -1.39,80.17 -14.63,-17.07 -55.39,-90.24 -64.31,-97.59 -18.94,-15.59 -46.37,-6.54 -54.23,11.76 -5.52,12.83 -2.99,137.06 -2.99,160.57 0,27.99 -4.57,50.62 15.54,64.63 19.89,13.85 46.42,-0.68 51.56,-18.45 4.17,-14.43 0.6,-62.09 1.82,-81.37z"/>
   <path class="fil0" d="M647.7 1628.44l0.38 -24.55c33.6,0.6 90.7,9.96 91.14,-33.27 0.44,-43.06 -53.9,-34.38 -89.85,-33.88l-1.62 -23.15c32.33,-8.95 92.76,11.5 113.6,-12.69 12.27,-14.25 10.8,-32.89 -1.69,-45.4 -13.71,-13.72 -31.52,-10.23 -53.68,-10.23 -142.94,0.01 -126.75,-17.23 -126.75,125.34 0,141.77 -15.19,124.61 126.75,124.62 18.76,0 40.52,2.17 52.83,-8.18 11.18,-9.41 14.69,-31.94 4.14,-46.15 -14.82,-19.96 -84.02,-13.27 -115.23,-12.47z"/>
   <path class="fil0" d="M69.16 1628.26l0.29 -24.25c36.2,0 91.09,9.4 91.13,-33.38 0.05,-43.34 -52.91,-33.96 -90.12,-33.96l-0.94 -24.19c31.32,0 99.29,7.4 114.19,-12.08 10.25,-13.4 8.52,-34.41 -2.94,-45.32 -13.09,-12.46 -33.24,-9.8 -54.1,-9.8 -141.71,0.01 -126.17,-16.46 -126.17,125.34 0,141.06 -14.06,124.61 126.17,124.62 19.45,0 39.03,3.59 52.54,-8.45 12.69,-11.31 17.45,-31.26 4.4,-45.87 -12.94,-14.49 -27.36,-12.67 -50.36,-12.66 -21.37,0.01 -42.73,0.01 -64.1,0z"/>
   <path class="fil0" d="M1289.08 1664.81l110.04 0.08c7.34,15.64 10.81,26.63 29.67,29.75 19.16,3.17 32.93,-6.26 38.15,-19.01 9.07,-22.13 -13.9,-55.21 -28.65,-84.72l-59.23 -118.51c-6.97,-14.06 -13.86,-26.82 -34.57,-27.01 -31.75,-0.29 -41.63,38.88 -54.33,64.26l-59.24 118.49c-6.88,13.76 -17.72,27.94 -10.04,46.35 9.67,23.2 51.41,36.01 68.2,-9.7zm36.3 -68.46l18.27 -40.57 21.06 41.8 -39.33 -1.24z"/>
   <path class="fil0" d="M1095.91 1512.38c-0.96,6.47 -52.58,81.19 -60.71,93.39 -6.52,9.79 -27.28,37.7 -29.27,47.32 -5.06,24.5 11.66,41.16 33.55,42.14 24.57,1.1 51.93,0.02 76.8,0.02 22.58,0 54.45,4.96 69.22,-9.33 17.1,-16.54 10.89,-44.19 -6.26,-53.17 -14.36,-7.53 -55.73,-4.64 -74.61,-4.4l62.16 -92.76c6.27,-9.02 26.93,-36.58 28.47,-48.47 7.08,-54.72 -59.94,-41.83 -114.08,-41.83 -24.43,0 -54.81,-4.42 -67.87,11.41 -13.63,16.52 -8.8,40.52 7.93,50.9 12.6,7.82 57.39,5.11 74.67,4.79z"/>
   <path class="fil0" d="M486.72 1609.11c1.72,15.68 -7.95,25.41 -18.73,15.33 -8.54,-7.99 -3.05,-13.46 -19.5,-20.09 -34.38,-13.87 -78.03,27.8 -19.14,76.12 47.02,38.58 140.19,-0.06 125.55,-79.6 -5.8,-31.52 -30.39,-54.31 -56.86,-61.35 -10.93,-2.91 -27.51,-0.2 -31.89,-10.09 -5.23,-11.78 8.7,-21.32 18.06,-13.81 8.02,6.44 2.37,12.52 19.53,20.29 22.56,10.2 44.35,-4.97 47.91,-23.01 9.03,-45.72 -82.9,-105.63 -139.43,-36.38 -11.78,14.43 -18.87,38.97 -14.77,62.64 2.04,11.76 5.75,19.14 11.34,28.03 25.59,40.68 57.71,29.68 77.94,41.93z"/>
   <path class="fil0" d="M303.26 1606.73c2.59,10.15 -0,27 -14.95,19.84 -7.42,-3.55 -5.64,-13.61 -19.14,-20.73 -21.8,-11.49 -45.69,1.37 -50.29,19.98 -7.25,29.28 32.94,77.26 88.95,68.25 70.84,-11.39 86.48,-102.39 37.03,-139.73 -31.05,-23.44 -51.54,-12.81 -59.32,-22.01 -8.04,-9.5 1.67,-23.43 13.47,-18.4 7.52,3.21 5.98,13.45 19.53,20.64 22.18,11.76 43.98,-0.64 49.81,-18.4 9.6,-29.22 -30.53,-76.59 -85.55,-70.22 -40.01,4.63 -73.93,42.99 -68.3,89.44 3.06,25.26 15.91,38.41 28.65,50.37 20.92,19.64 36.94,12.26 60.11,20.95z"/>
   <path class="fil0" d="M1417.6 2000.2c-2.51,28.18 -13.99,17.89 -30.75,25.3 -11.54,5.1 -20.33,22.86 -10.06,37.28 17.96,25.23 63.34,0.48 74.91,-14.1 22.14,-27.88 16.76,-53.75 16.76,-94.05 0,-43.18 1.94,-63.84 -23.83,-89.17 -47.2,-46.4 -121.57,-20.15 -137.58,36.47 -14.48,51.21 25.48,120.04 110.55,98.27zm-42.51 -105.65c-36.57,14.58 -17.7,73.84 22.76,58.63 13.31,-5 24.4,-22.68 17.56,-40.93 -5.11,-13.64 -21.75,-25.1 -40.32,-17.69z"/>
   <path class="fil0" d="M1009.23 1847.13c-50.42,-14.02 -98.24,7.29 -110.78,56.52 -13.3,52.2 26.04,96.85 70.91,101.13 53.55,5.1 90.73,-33.77 91.01,-85.25 0.09,-16.13 2.64,-75.22 -2.8,-86.08 -10.63,-21.2 -45.79,-20.21 -48.34,13.69zm-42.27 47.42c-36.57,14.58 -17.7,73.84 22.76,58.63 13.31,-5 24.4,-22.68 17.56,-40.93 -5.11,-13.64 -21.75,-25.1 -40.32,-17.69z"/>
   <path class="fil0" d="M273.31 1847.09c-3.06,-33.46 -37.17,-35.31 -48.42,-13.61 -5.02,9.69 -2.86,68.38 -2.78,83.9 0.14,27.76 9.35,49.47 22.98,63.66 53.06,55.27 158.08,9.39 139.25,-75.73 -5.47,-24.7 -21.41,-40.77 -36.65,-50.99 -20.8,-13.95 -48.61,-14.37 -74.37,-7.24zm19.69 47.25c-33.49,13.05 -19.37,74.63 22.85,58.61 37.29,-14.15 15.95,-73.72 -22.85,-58.61z"/>
   <path class="fil0" d="M619.2 1844.57c-109.21,25.42 -62.82,192.81 45.68,156.56 21.33,-7.13 11.8,4.92 32.16,3.89 12.04,-0.61 20.26,-7.97 22.68,-18.72 2.1,-9.36 1.29,-69.64 -0.69,-79.89 -7.92,-41.1 -48.99,-73.67 -99.83,-61.84zm7.98 50.21c-39.42,17.19 -13.94,72.42 22.55,58.53 34.3,-13.06 18.2,-76.3 -22.55,-58.53z"/>
   <path class="fil0" d="M1198.68 1844.73c-25.05,6.19 -46.59,26.57 -51.58,52.83 -3.24,17.07 -4.42,86.1 3.15,97.7 6,9.2 23.88,14.13 36.18,5.33 20.39,-14.59 4.3,-67.49 11.16,-93.88 3.89,-14.96 23.94,-19.76 33.8,-7.83 12.86,15.54 -3.15,74.74 8.44,94.63 5.88,10.09 23.38,16.61 36.48,7.05 12.86,-9.39 10.98,-22.92 10.94,-41.53 -0.06,-34.18 4.42,-65.67 -14.08,-88.89 -14.54,-18.26 -40.42,-33.81 -74.5,-25.39z"/>
   <path class="fil0" d="M790.54 1844.73c-25.05,6.19 -46.59,26.57 -51.58,52.83 -3.24,17.07 -4.42,86.1 3.15,97.7 6,9.2 23.88,14.13 36.18,5.33 20.39,-14.59 4.3,-67.49 11.16,-93.88 3.89,-14.96 23.94,-19.76 33.8,-7.83 12.86,15.54 -3.14,74.74 8.44,94.63 5.88,10.09 23.38,16.61 36.48,7.05 12.86,-9.39 10.98,-22.92 10.94,-41.53 -0.06,-34.18 4.42,-65.67 -14.08,-88.89 -14.54,-18.26 -40.42,-33.81 -74.5,-25.39z"/>
   <path class="fil0" d="M455.39 1843.77c-54.83,9.79 -51.59,53.42 -51.6,108.66 -0,17.09 -5.78,52.96 25.67,52.65 55.57,-0.54 -4.01,-119.39 48.11,-112.57 13.58,1.78 11.54,10.86 22.36,18.01 21.02,13.89 66.18,-11.01 19.32,-52.27 -16.45,-14.48 -38.3,-19.05 -63.86,-14.49z"/>
   <path class="fil0" d="M1094.07 1844.05c-23.23,8.87 -16.17,53.47 -16.17,90.82 0,19 -9.49,84.66 34.74,68.73 16.61,-5.98 16.33,-21.29 16.27,-35.77 -0.08,-18.3 -0.03,-36.61 -0.03,-54.91 0,-26.91 6.43,-84.63 -34.8,-68.88z"/>
   <path class="fil0" d="M1094.3 1776.15c-33.03,12.04 -11.44,60.11 20.61,45.53 25.27,-11.49 11.63,-57.29 -20.61,-45.53z"/>
   <polygon class="fil1" points="1325.39,1596.34 1343.66,1555.78 1364.71,1597.58 "/>
  </g>
 </g>
</svg>
