<?xml version="1.0" encoding="UTF-8"?>
<!DOCTYPE svg PUBLIC "-//W3C//DTD SVG 1.1//EN" "http://www.w3.org/Graphics/SVG/1.1/DTD/svg11.dtd">
<!-- Creator: CorelDRAW -->
<svg xmlns="http://www.w3.org/2000/svg" xml:space="preserve" width="88.0971mm" height="124.353mm" version="1.1" style="shape-rendering:geometricPrecision; text-rendering:geometricPrecision; image-rendering:optimizeQuality; fill-rule:evenodd; clip-rule:evenodd"
viewBox="0 0 961.34 1356.98"
 xmlns:xlink="http://www.w3.org/1999/xlink"
 xmlns:xodm="http://www.corel.com/coreldraw/odm/2003">
 <defs>
  <style type="text/css">
   <![CDATA[
    .fil1 {fill:none}
    .fil0 {fill:white}
   ]]>
  </style>
 </defs>
 <g id="Capa_x0020_1">
  <metadata id="CorelCorpID_0Corel-Layer"/>
  <g id="_41528644000">
   <path class="fil0" d="M456.43 0.56c-78.93,4.24 -163.72,38.14 -221.97,84.67 -10.24,8.18 -19.05,15.75 -28.16,23.55 -13.49,11.54 -36.47,38.74 -47.93,53.99 -7.78,10.36 -13.89,19.2 -21.1,30.57 -45.1,71.07 -65.46,159.39 -59.24,246.5 15.3,214.33 207.37,395.07 442.77,373.83 81.36,-7.34 158.25,-39.16 218.33,-87.41 5.59,-4.49 8.95,-8.16 13.93,-11.88 5.96,-4.46 8.02,-7.74 13.3,-12.54 4.95,-4.5 8.43,-7.99 12.92,-12.96 23.65,-26.1 35.98,-39.34 55.55,-72.2 50.58,-84.95 55.69,-149.64 58.84,-247.91 2.11,-66.06 3.73,-132.1 5.79,-198.14 1.87,-60.2 -14.55,-106.84 -64.99,-139.89 -21.11,-13.83 -47.24,-22.28 -78.07,-23.36 -60.53,-2.11 -251.32,-9.44 -299.95,-6.83zm318.42 68.75c-62.06,14.16 -39.98,106.08 20.33,92.7 60.84,-13.5 41.17,-106.73 -20.33,-92.7zm-355.54 457.4l0.03 -51.34c40.25,-4.6 91.9,3.54 132.7,-0.99 61.01,-6.79 82.37,-80.77 45.8,-119.46 -11.65,-12.33 -26.13,-21.09 -44.04,-23.51 -25.25,-3.4 -99.57,0.96 -133.97,-0.99l-0.52 -51.71c34.24,-3.69 172.7,3.05 201.22,-1.35 56.93,-8.8 81.86,-78.53 40.12,-121.65 -27.74,-28.66 -68.95,-21.75 -115.39,-21.75 -44.99,0 -89.99,0 -134.98,0 -47.36,0 -87.53,-7.74 -116.34,20.78 -6.03,5.96 -9.84,9.64 -14.53,18.52 -12.38,23.47 -7.81,64.03 -7.81,93.52l0 271.39c0,21.06 -1.22,46.08 0.2,66.66 1.39,20.11 12.42,38.15 22.09,46.84 30.05,27.02 67.89,19.81 114.95,19.81 45.47,0 90.94,0 136.41,0 54.35,0 103.13,8.41 128.46,-39.34 13.98,-26.36 8.36,-56.63 -8.94,-78.49 -24.63,-31.13 -61,-26.44 -109.46,-26.44 -21.93,0 -123.42,1.28 -136.01,-0.51z"/>
   <path class="fil0" d="M563.75 1040.7c6.67,5.53 35.38,58.22 42.71,63.78 12.49,9.48 29.17,4.24 34.87,-7.84 3.79,-8.03 2.05,-89.6 2.05,-104.71 0,-19.21 2.9,-33.96 -10.85,-42.78 -13.69,-8.78 -30.43,0.64 -33.45,13.21 -2.48,10.33 -0.34,39.6 -0.91,52.46 -9.58,-11.17 -36.25,-59.06 -42.09,-63.87 -12.39,-10.2 -30.34,-4.28 -35.49,7.7 -3.61,8.4 -1.96,89.69 -1.96,105.07 0,18.32 -2.99,33.13 10.17,42.29 13.01,9.06 30.38,-0.45 33.74,-12.07 2.73,-9.44 0.4,-40.63 1.19,-53.25z"/>
   <path class="fil0" d="M423.85 1065.66l0.25 -16.07c21.99,0.39 59.36,6.51 59.64,-21.77 0.29,-28.18 -35.27,-22.5 -58.8,-22.17l-1.06 -15.15c21.16,-5.86 60.7,7.53 74.34,-8.3 8.03,-9.32 7.07,-21.52 -1.11,-29.71 -8.97,-8.98 -20.62,-6.69 -35.13,-6.69 -93.54,0.01 -82.95,-11.28 -82.95,82.02 0,92.77 -9.94,81.55 82.95,81.55 12.28,0 26.52,1.42 34.57,-5.35 7.32,-6.16 9.61,-20.9 2.71,-30.2 -9.7,-13.06 -54.98,-8.68 -75.41,-8.16z"/>
   <path class="fil0" d="M45.26 1065.54l0.19 -15.87c23.69,0 59.61,6.15 59.64,-21.84 0.03,-28.36 -34.62,-22.22 -58.98,-22.22l-0.62 -15.83c20.5,0 64.98,4.84 74.73,-7.9 6.71,-8.77 5.57,-22.52 -1.92,-29.66 -8.57,-8.16 -21.75,-6.41 -35.4,-6.41 -92.74,0.01 -82.57,-10.77 -82.57,82.02 0,92.31 -9.2,81.55 82.57,81.55 12.73,0 25.54,2.35 34.38,-5.53 8.31,-7.4 11.42,-20.46 2.88,-30.02 -8.47,-9.48 -17.91,-8.29 -32.95,-8.29 -13.98,0.01 -27.96,0 -41.95,0z"/>
   <path class="fil0" d="M843.58 1089.45l72.01 0.05c4.81,10.24 7.07,17.43 19.42,19.47 12.54,2.07 21.55,-4.1 24.97,-12.44 5.94,-14.48 -9.1,-36.13 -18.75,-55.44l-38.76 -77.55c-4.56,-9.2 -9.07,-17.55 -22.62,-17.67 -20.78,-0.19 -27.24,25.44 -35.55,42.05l-38.77 77.54c-4.5,9 -11.6,18.28 -6.57,30.33 6.33,15.18 33.64,23.56 44.63,-6.35zm23.76 -44.8l11.96 -26.55 13.78 27.36 -25.74 -0.81z"/>
   <path class="fil0" d="M717.17 989.71c-0.63,4.24 -34.41,53.13 -39.73,61.12 -4.27,6.4 -17.85,24.67 -19.16,30.97 -3.31,16.03 7.63,26.93 21.96,27.58 16.08,0.72 33.98,0.01 50.26,0.01 14.78,0 35.63,3.24 45.3,-6.11 11.19,-10.83 7.12,-28.92 -4.1,-34.8 -9.4,-4.92 -36.47,-3.03 -48.83,-2.88l40.68 -60.7c4.1,-5.91 17.62,-23.94 18.63,-31.72 4.64,-35.81 -39.22,-27.37 -74.65,-27.37 -15.99,0 -35.87,-2.89 -44.41,7.47 -8.92,10.81 -5.76,26.52 5.19,33.31 8.25,5.12 37.55,3.35 48.86,3.13z"/>
   <path class="fil0" d="M318.51 1053c1.12,10.26 -5.21,16.63 -12.26,10.03 -5.59,-5.23 -2,-8.81 -12.76,-13.15 -22.5,-9.07 -51.06,18.19 -12.53,49.81 30.77,25.25 91.74,-0.04 82.16,-52.09 -3.8,-20.63 -19.89,-35.54 -37.21,-40.15 -7.15,-1.9 -18,-0.13 -20.87,-6.6 -3.42,-7.71 5.69,-13.95 11.82,-9.04 5.25,4.21 1.55,8.2 12.78,13.27 14.76,6.68 29.02,-3.25 31.36,-15.06 5.91,-29.92 -54.25,-69.13 -91.24,-23.81 -7.71,9.45 -12.35,25.5 -9.67,40.99 1.33,7.7 3.76,12.53 7.42,18.34 16.75,26.62 37.77,19.42 51,27.44z"/>
   <path class="fil0" d="M198.46 1051.45c1.7,6.64 -0,17.67 -9.79,12.98 -4.86,-2.33 -3.69,-8.91 -12.53,-13.56 -14.27,-7.52 -29.9,0.9 -32.91,13.08 -4.74,19.16 21.56,50.56 58.21,44.67 46.36,-7.45 56.59,-67 24.23,-91.44 -20.32,-15.34 -33.73,-8.38 -38.82,-14.4 -5.26,-6.22 1.09,-15.33 8.82,-12.04 4.92,2.1 3.92,8.8 12.78,13.51 14.52,7.7 28.78,-0.42 32.6,-12.04 6.28,-19.12 -19.98,-50.12 -55.99,-45.95 -26.18,3.03 -48.38,28.13 -44.69,58.53 2,16.53 10.41,25.14 18.75,32.96 13.69,12.85 24.18,8.02 39.34,13.71z"/>
   <path class="fil0" d="M927.68 1308.93c-1.64,18.44 -9.15,11.71 -20.12,16.55 -7.55,3.33 -13.3,14.96 -6.58,24.4 11.75,16.51 41.45,0.31 49.02,-9.23 14.49,-18.24 10.97,-35.17 10.97,-61.55 0,-28.26 1.27,-41.78 -15.59,-58.36 -30.89,-30.36 -79.56,-13.19 -90.03,23.87 -9.47,33.51 16.68,78.56 72.34,64.31zm-27.82 -69.14c-23.93,9.54 -11.58,48.32 14.89,38.37 8.71,-3.27 15.97,-14.84 11.49,-26.79 -3.34,-8.93 -14.23,-16.42 -26.38,-11.58z"/>
   <path class="fil0" d="M660.44 1208.77c-32.99,-9.17 -64.29,4.77 -72.49,36.99 -8.7,34.16 17.04,63.38 46.4,66.18 35.04,3.34 59.37,-22.1 59.56,-55.79 0.06,-10.56 1.73,-49.22 -1.84,-56.33 -6.96,-13.87 -29.97,-13.23 -31.63,8.96zm-27.66 31.03c-23.93,9.54 -11.58,48.32 14.89,38.37 8.71,-3.27 15.97,-14.84 11.49,-26.79 -3.34,-8.93 -14.23,-16.42 -26.39,-11.58z"/>
   <path class="fil0" d="M178.86 1208.74c-2,-21.89 -24.33,-23.11 -31.69,-8.91 -3.29,6.34 -1.87,44.75 -1.82,54.91 0.09,18.16 6.12,32.37 15.04,41.66 34.72,36.17 103.45,6.15 91.12,-49.56 -3.58,-16.16 -14.01,-26.68 -23.98,-33.37 -13.61,-9.13 -31.81,-9.4 -48.67,-4.74zm12.89 30.92c-21.92,8.54 -12.68,48.84 14.95,38.36 24.41,-9.26 10.44,-48.25 -14.95,-38.36z"/>
   <path class="fil0" d="M405.21 1207.09c-71.47,16.63 -41.11,126.18 29.9,102.46 13.96,-4.66 7.72,3.22 21.04,2.54 7.88,-0.4 13.26,-5.22 14.84,-12.25 1.37,-6.13 0.84,-45.58 -0.45,-52.28 -5.19,-26.9 -32.06,-48.21 -65.33,-40.47zm5.22 32.86c-25.79,11.25 -9.12,47.39 14.75,38.3 22.45,-8.54 11.91,-49.93 -14.75,-38.3z"/>
   <path class="fil0" d="M784.42 1207.2c-16.39,4.05 -30.49,17.39 -33.75,34.57 -2.12,11.17 -2.89,56.34 2.06,63.93 3.93,6.02 15.62,9.25 23.68,3.49 13.34,-9.55 2.81,-44.17 7.3,-61.43 2.55,-9.79 15.66,-12.93 22.12,-5.13 8.41,10.17 -2.06,48.91 5.52,61.92 3.85,6.6 15.3,10.87 23.88,4.61 8.42,-6.14 7.18,-15 7.16,-27.18 -0.04,-22.37 2.89,-42.98 -9.21,-58.17 -9.52,-11.95 -26.45,-22.12 -48.75,-16.61z"/>
   <path class="fil0" d="M517.33 1207.2c-16.39,4.05 -30.49,17.39 -33.75,34.57 -2.12,11.17 -2.89,56.34 2.06,63.93 3.93,6.02 15.62,9.25 23.68,3.49 13.34,-9.55 2.81,-44.17 7.3,-61.43 2.55,-9.79 15.66,-12.93 22.12,-5.13 8.41,10.17 -2.06,48.91 5.52,61.92 3.85,6.6 15.3,10.87 23.88,4.61 8.42,-6.14 7.18,-15 7.16,-27.18 -0.04,-22.37 2.89,-42.98 -9.21,-58.17 -9.52,-11.95 -26.45,-22.12 -48.75,-16.61z"/>
   <path class="fil0" d="M298.01 1206.57c-35.88,6.41 -33.76,34.96 -33.77,71.11 -0,11.18 -3.79,34.65 16.8,34.46 36.37,-0.35 -2.63,-78.13 31.48,-73.67 8.89,1.16 7.55,7.11 14.63,11.79 13.75,9.09 43.31,-7.2 12.64,-34.2 -10.76,-9.48 -25.06,-12.47 -41.79,-9.48z"/>
   <path class="fil0" d="M715.96 1206.75c-15.2,5.81 -10.58,34.99 -10.58,59.44 0,12.44 -6.21,55.4 22.73,44.98 10.87,-3.91 10.68,-13.93 10.64,-23.4 -0.05,-11.98 -0.02,-23.95 -0.02,-35.93 0,-17.61 4.21,-55.38 -22.77,-45.08z"/>
   <path class="fil0" d="M716.11 1162.32c-21.62,7.88 -7.48,39.33 13.49,29.8 16.54,-7.52 7.61,-37.49 -13.49,-29.8z"/>
   <polygon class="fil1" points="867.33,1044.65 879.29,1018.11 893.07,1045.46 "/>
  </g>
 </g>
</svg>
